900.ufo
<glyph name="parenleft" format="2">
  <advance width="360"/>
  <unicode hex="0028"/>
  <outline>
    <contour>
      <point x="180" y="780" type="curve"/>
      <point x="355" y="780" type="line"/>
      <point x="285" y="630"/>
      <point x="240" y="460"/>
      <point x="240" y="290" type="curve" smooth="yes"/>
      <point x="240" y="120"/>
      <point x="285" y="-50"/>
      <point x="355" y="-200" type="curve"/>
      <point x="180" y="-200" type="line"/>
      <point x="100" y="-50"/>
      <point x="55" y="120"/>
      <point x="55" y="290" type="curve" smooth="yes"/>
      <point x="55" y="460"/>
      <point x="100" y="630"/>
    </contour>
  </outline>
</glyph>
<glyph name="plus" format="2">
  <advance width="710"/>
  <unicode hex="002B"/>
  <outline>
    <contour>
      <point x="65" y="185" type="line"/>
      <point x="65" y="370" type="line"/>
      <point x="645" y="370" type="line"/>
      <point x="645" y="185" type="line"/>
    </contour>
    <contour>
      <point x="255" y="565" type="line"/>
      <point x="455" y="565" type="line"/>
      <point x="455" y="-10" type="line"/>
      <point x="255" y="-10" type="line"/>
    </contour>
  </outline>
</glyph>
<glyph name="five" format="2">
  <advance width="694"/>
  <unicode hex="0035"/>
  <outline>
    <contour>
      <point x="654" y="220" type="curve" smooth="yes"/>
      <point x="654" y="51"/>
      <point x="484" y="-15"/>
      <point x="349" y="-15" type="curve" smooth="yes"/>
      <point x="220" y="-15"/>
      <point x="126" y="12"/>
      <point x="50" y="42" type="curve"/>
      <point x="112" y="236" type="line"/>
      <point x="183" y="196"/>
      <point x="252" y="185"/>
      <point x="289" y="185" type="curve" smooth="yes"/>
      <point x="364" y="185"/>
      <point x="411" y="199"/>
      <point x="411" y="250" type="curve" smooth="yes"/>
      <point x="411" y="301"/>
      <point x="344" y="310"/>
      <point x="289" y="310" type="curve" smooth="yes"/>
      <point x="242" y="310"/>
      <point x="152" y="304"/>
      <point x="81" y="277" type="curve"/>
      <point x="182" y="700" type="line"/>
      <point x="632" y="700" type="line"/>
      <point x="632" y="510" type="line"/>
      <point x="341" y="510" type="line"/>
      <point x="305.799" y="421.709" type="line"/>
      <point x="345.413" y="440.237"/>
      <point x="389.23" y="445"/>
      <point x="439" y="445" type="curve" smooth="yes"/>
      <point x="544" y="445"/>
      <point x="654" y="369"/>
    </contour>
  </outline>
</glyph>
<glyph name="seven" format="2">
  <advance width="650"/>
  <unicode hex="0037"/>
  <outline>
    <contour>
      <point x="30" y="495" type="line"/>
      <point x="30" y="700" type="line"/>
      <point x="650" y="700" type="line"/>
      <point x="310" y="0" type="line"/>
      <point x="71" y="0" type="line"/>
      <point x="329" y="495" type="line"/>
    </contour>
  </outline>
</glyph>
<glyph name="backslash" format="2">
  <advance width="565"/>
  <unicode hex="005C"/>
  <outline>
    <contour>
      <point x="15" y="700" type="line"/>
      <point x="200" y="700" type="line"/>
      <point x="550" y="0" type="line"/>
      <point x="365" y="0" type="line"/>
    </contour>
  </outline>
</glyph>
<glyph name="e" format="2">
  <advance width="609"/>
  <unicode hex="0065"/>
  <outline>
    <contour>
      <point x="318" y="-10" type="curve" smooth="yes"/>
      <point x="137" y="-10"/>
      <point x="30" y="80"/>
      <point x="30" y="230" type="curve" smooth="yes"/>
      <point x="30" y="382"/>
      <point x="132" y="470"/>
      <point x="308" y="470" type="curve" smooth="yes"/>
      <point x="482" y="470"/>
      <point x="575" y="389"/>
      <point x="575" y="239" type="curve" smooth="yes"/>
      <point x="575" y="221"/>
      <point x="575" y="204"/>
      <point x="573" y="190" type="curve"/>
      <point x="136" y="190" type="line"/>
      <point x="136" y="284" type="line"/>
      <point x="392" y="284" type="line"/>
      <point x="354" y="238" type="line"/>
      <point x="362" y="250"/>
      <point x="368" y="264"/>
      <point x="368" y="274" type="curve" smooth="yes"/>
      <point x="368" y="322"/>
      <point x="343" y="350"/>
      <point x="303" y="350" type="curve" smooth="yes"/>
      <point x="249" y="350"/>
      <point x="226" y="314"/>
      <point x="226" y="230" type="curve" smooth="yes"/>
      <point x="224" y="160"/>
      <point x="254" y="120"/>
      <point x="308" y="120" type="curve" smooth="yes"/>
      <point x="356" y="120"/>
      <point x="388" y="135"/>
      <point x="404" y="165" type="curve"/>
      <point x="582" y="137" type="line"/>
      <point x="532" y="38"/>
      <point x="446" y="-10"/>
    </contour>
  </outline>
</glyph>
<glyph name="i" format="2">
  <advance width="286"/>
  <unicode hex="0069"/>
  <outline>
    <contour>
      <point x="35" y="622" type="curve" smooth="yes"/>
      <point x="35" y="681"/>
      <point x="83" y="720"/>
      <point x="143" y="720" type="curve" smooth="yes"/>
      <point x="203" y="720"/>
      <point x="251" y="681"/>
      <point x="251" y="622" type="curve" smooth="yes"/>
      <point x="251" y="563"/>
      <point x="203" y="524"/>
      <point x="143" y="524" type="curve" smooth="yes"/>
      <point x="83" y="524"/>
      <point x="35" y="563"/>
    </contour>
    <contour>
      <point x="49" y="460" type="line"/>
      <point x="236" y="460" type="line"/>
      <point x="236" y="0" type="line"/>
      <point x="49" y="0" type="line"/>
    </contour>
  </outline>
</glyph>
<glyph name="n" format="2">
  <advance width="605"/>
  <unicode hex="006E"/>
  <outline>
    <contour>
      <point x="350" y="280" type="line" smooth="yes"/>
      <point x="350" y="321"/>
      <point x="342" y="346"/>
      <point x="302" y="346" type="curve" smooth="yes"/>
      <point x="267" y="346"/>
      <point x="245" y="326"/>
      <point x="245" y="280" type="curve" smooth="yes"/>
      <point x="245" y="0" type="line"/>
      <point x="50" y="0" type="line"/>
      <point x="50" y="460" type="line"/>
      <point x="245" y="460" type="line"/>
      <point x="245" y="393" type="line"/>
      <point x="270" y="440"/>
      <point x="315" y="471"/>
      <point x="387" y="471" type="curve" smooth="yes"/>
      <point x="512" y="471"/>
      <point x="555" y="409"/>
      <point x="555" y="300" type="curve" smooth="yes"/>
      <point x="555" y="0" type="line"/>
      <point x="350" y="0" type="line"/>
    </contour>
  </outline>
</glyph>
<glyph name="s" format="2">
  <advance width="488"/>
  <unicode hex="0073"/>
  <outline>
    <contour>
      <point x="78" y="183" type="line"/>
      <point x="173" y="114"/>
      <point x="229" y="110"/>
      <point x="246" y="110" type="curve" smooth="yes"/>
      <point x="267" y="110"/>
      <point x="275" y="120"/>
      <point x="275" y="133" type="curve" smooth="yes"/>
      <point x="275" y="151"/>
      <point x="267" y="159"/>
      <point x="181" y="186" type="curve" smooth="yes"/>
      <point x="113" y="207"/>
      <point x="52" y="242"/>
      <point x="52" y="334" type="curve" smooth="yes"/>
      <point x="52" y="420"/>
      <point x="124" y="470"/>
      <point x="238" y="470" type="curve" smooth="yes"/>
      <point x="321" y="470"/>
      <point x="386" y="446"/>
      <point x="454" y="415" type="curve"/>
      <point x="406" y="282" type="line"/>
      <point x="361" y="320"/>
      <point x="296" y="346"/>
      <point x="259" y="346" type="curve" smooth="yes"/>
      <point x="235" y="346"/>
      <point x="229" y="336"/>
      <point x="229" y="327" type="curve" smooth="yes"/>
      <point x="229" y="300"/>
      <point x="261" y="299"/>
      <point x="341" y="270" type="curve" smooth="yes"/>
      <point x="406" y="246"/>
      <point x="468" y="217"/>
      <point x="468" y="130" type="curve" smooth="yes"/>
      <point x="468" y="21"/>
      <point x="404" y="-25"/>
      <point x="285" y="-25" type="curve" smooth="yes"/>
      <point x="180" y="-25"/>
      <point x="99" y="1"/>
      <point x="15" y="46" type="curve"/>
    </contour>
  </outline>
</glyph>
<glyph name="t" format="2">
  <advance width="365"/>
  <unicode hex="0074"/>
  <outline>
    <contour>
      <point x="5" y="460" type="line"/>
      <point x="360" y="460" type="line"/>
      <point x="360" y="305" type="line"/>
      <point x="5" y="305" type="line"/>
    </contour>
    <contour>
      <point x="90" y="620" type="line"/>
      <point x="275" y="620" type="line"/>
      <point x="275" y="0" type="line"/>
      <point x="90" y="0" type="line"/>
    </contour>
  </outline>
</glyph>
<glyph name="bar" format="2">
  <advance width="400"/>
  <unicode hex="007C"/>
  <outline>
    <contour>
      <point x="100" y="785" type="line"/>
      <point x="300" y="785" type="line"/>
      <point x="300" y="-215" type="line"/>
      <point x="100" y="-215" type="line"/>
    </contour>
  </outline>
</glyph>
<glyph name="copyright" format="2">
  <advance width="800"/>
  <unicode hex="00A9"/>
  <outline>
    <contour>
      <point x="319" y="350" type="curve" smooth="yes"/>
      <point x="319" y="285"/>
      <point x="368" y="252"/>
      <point x="427" y="252" type="curve" smooth="yes"/>
      <point x="486" y="252"/>
      <point x="520" y="279"/>
      <point x="546" y="304" type="curve"/>
      <point x="546" y="168" type="line"/>
      <point x="513" y="145"/>
      <point x="478" y="128"/>
      <point x="417" y="128" type="curve" smooth="yes"/>
      <point x="271" y="128"/>
      <point x="174" y="216"/>
      <point x="174" y="350" type="curve" smooth="yes"/>
      <point x="174" y="484"/>
      <point x="271" y="572"/>
      <point x="417" y="572" type="curve" smooth="yes"/>
      <point x="478" y="572"/>
      <point x="513" y="555"/>
      <point x="546" y="532" type="curve"/>
      <point x="546" y="396" type="line"/>
      <point x="520" y="421"/>
      <point x="486" y="448"/>
      <point x="427" y="448" type="curve" smooth="yes"/>
      <point x="368" y="448"/>
      <point x="319" y="415"/>
    </contour>
    <contour>
      <point x="95" y="350" type="curve" smooth="yes"/>
      <point x="95" y="172"/>
      <point x="227" y="40"/>
      <point x="400" y="40" type="curve" smooth="yes"/>
      <point x="573" y="40"/>
      <point x="705" y="172"/>
      <point x="705" y="350" type="curve" smooth="yes"/>
      <point x="705" y="528"/>
      <point x="573" y="660"/>
      <point x="400" y="660" type="curve" smooth="yes"/>
      <point x="227" y="660"/>
      <point x="95" y="528"/>
    </contour>
    <contour>
      <point x="40" y="350" type="curve" smooth="yes"/>
      <point x="40" y="559"/>
      <point x="196" y="710"/>
      <point x="400" y="710" type="curve" smooth="yes"/>
      <point x="604" y="710"/>
      <point x="760" y="559"/>
      <point x="760" y="350" type="curve" smooth="yes"/>
      <point x="760" y="141"/>
      <point x="604" y="-10"/>
      <point x="400" y="-10" type="curve" smooth="yes"/>
      <point x="196" y="-10"/>
      <point x="40" y="141"/>
    </contour>
  </outline>
</glyph>
<glyph name="threequarters" format="2">
  <advance width="915"/>
  <unicode hex="00BE"/>
  <outline>
    <contour>
      <point x="700" y="700" type="line"/>
      <point x="815" y="700" type="line"/>
      <point x="295" y="0" type="line"/>
      <point x="180" y="0" type="line"/>
    </contour>
    <contour>
      <point x="172" y="481" type="curve"/>
      <point x="172" y="534" type="line"/>
      <point x="214" y="534"/>
      <point x="245" y="556"/>
      <point x="245" y="581" type="curve" smooth="yes"/>
      <point x="245" y="597"/>
      <point x="233" y="607"/>
      <point x="207" y="607" type="curve" smooth="yes"/>
      <point x="180" y="607"/>
      <point x="162" y="591"/>
      <point x="162" y="566" type="curve"/>
      <point x="41" y="566" type="line"/>
      <point x="41" y="646"/>
      <point x="106" y="709"/>
      <point x="208" y="709" type="curve" smooth="yes"/>
      <point x="316" y="709"/>
      <point x="375" y="658"/>
      <point x="375" y="590" type="curve" smooth="yes"/>
      <point x="375" y="510"/>
      <point x="283" y="481"/>
    </contour>
    <contour>
      <point x="202" y="268" type="curve" smooth="yes"/>
      <point x="88" y="268"/>
      <point x="23" y="347"/>
      <point x="23" y="427" type="curve"/>
      <point x="153" y="427" type="line"/>
      <point x="153" y="384"/>
      <point x="181" y="370"/>
      <point x="208" y="370" type="curve" smooth="yes"/>
      <point x="235" y="370"/>
      <point x="257" y="378"/>
      <point x="257" y="409" type="curve" smooth="yes"/>
      <point x="257" y="434"/>
      <point x="238" y="457"/>
      <point x="172" y="457" type="curve"/>
      <point x="172" y="519" type="line"/>
      <point x="301" y="519"/>
      <point x="387" y="483"/>
      <point x="387" y="397" type="curve" smooth="yes"/>
      <point x="387" y="323"/>
      <point x="322" y="268"/>
    </contour>
    <contour>
      <point x="464" y="69" type="line"/>
      <point x="572" y="159" type="line"/>
      <point x="760" y="159" type="line" smooth="yes"/>
      <point x="770" y="180" type="line" smooth="yes"/>
      <point x="889" y="180" type="line"/>
      <point x="889" y="69" type="line"/>
    </contour>
    <contour>
      <point x="596" y="117" type="line"/>
      <point x="464" y="69" type="line"/>
      <point x="715" y="420" type="line"/>
      <point x="823" y="420" type="line"/>
      <point x="823" y="0" type="line"/>
      <point x="685" y="0" type="line"/>
      <point x="685" y="91" type="line" smooth="yes"/>
      <point x="703" y="97" type="line" smooth="yes"/>
      <point x="703" y="253" type="line"/>
    </contour>
  </outline>
</glyph>
<glyph name="Aring" format="2">
  <advance width="780"/>
  <unicode hex="00C5"/>
  <outline>
    <contour>
      <point x="207" y="90" type="line"/>
      <point x="207" y="248" type="line"/>
      <point x="577" y="248" type="line"/>
      <point x="577" y="90" type="line"/>
    </contour>
    <contour>
      <point x="390" y="382" type="line"/>
      <point x="304" y="189" type="line"/>
      <point x="321" y="139" type="line"/>
      <point x="245" y="0" type="line"/>
      <point x="-5" y="0" type="line"/>
      <point x="390" y="750" type="line"/>
      <point x="785" y="0" type="line"/>
      <point x="535" y="0" type="line"/>
      <point x="461" y="132" type="line"/>
      <point x="476" y="189" type="line"/>
    </contour>
    <contour>
      <point x="251" y="802" type="curve" smooth="yes"/>
      <point x="251" y="876"/>
      <point x="309" y="927"/>
      <point x="389" y="927" type="curve" smooth="yes"/>
      <point x="469" y="927"/>
      <point x="529" y="876"/>
      <point x="529" y="802" type="curve" smooth="yes"/>
      <point x="529" y="728"/>
      <point x="469" y="677"/>
      <point x="389" y="677" type="curve" smooth="yes"/>
      <point x="309" y="677"/>
      <point x="251" y="728"/>
    </contour>
    <contour>
      <point x="346" y="802" type="curve" smooth="yes"/>
      <point x="346" y="774"/>
      <point x="364" y="758"/>
      <point x="389" y="758" type="curve" smooth="yes"/>
      <point x="414" y="758"/>
      <point x="433" y="774"/>
      <point x="433" y="802" type="curve" smooth="yes"/>
      <point x="433" y="830"/>
      <point x="414" y="847"/>
      <point x="389" y="847" type="curve" smooth="yes"/>
      <point x="364" y="847"/>
      <point x="346" y="830"/>
    </contour>
  </outline>
</glyph>
<glyph name="Eacute" format="2">
  <advance width="635"/>
  <unicode hex="00C9"/>
  <outline>
    <contour>
      <point x="222" y="0" type="line"/>
      <point x="222" y="175" type="line"/>
      <point x="575" y="175" type="line"/>
      <point x="575" y="0" type="line"/>
    </contour>
    <contour>
      <point x="222" y="525" type="line"/>
      <point x="222" y="700" type="line"/>
      <point x="575" y="700" type="line"/>
      <point x="575" y="525" type="line"/>
    </contour>
    <contour>
      <point x="222" y="275" type="line"/>
      <point x="222" y="445" type="line"/>
      <point x="555" y="445" type="line"/>
      <point x="555" y="275" type="line"/>
    </contour>
    <contour>
      <point x="70" y="700" type="line"/>
      <point x="280" y="700" type="line"/>
      <point x="280" y="0" type="line"/>
      <point x="70" y="0" type="line"/>
    </contour>
    <contour>
      <point x="498" y="940" type="line"/>
      <point x="318" y="790" type="line"/>
      <point x="208" y="840" type="line"/>
      <point x="358" y="1000" type="line"/>
    </contour>
  </outline>
</glyph>
<glyph name="Icircumflex" format="2">
  <advance width="365"/>
  <unicode hex="00CE"/>
  <outline>
    <contour>
      <point x="70" y="700" type="line"/>
      <point x="295" y="700" type="line"/>
      <point x="295" y="0" type="line"/>
      <point x="70" y="0" type="line"/>
    </contour>
    <contour>
      <point x="182.5" y="860" type="line"/>
      <point x="102.5" y="780" type="line"/>
      <point x="-37.5" y="870" type="line"/>
      <point x="182.5" y="1010" type="line"/>
      <point x="402.5" y="870" type="line"/>
      <point x="262.5" y="780" type="line"/>
    </contour>
  </outline>
</glyph>
<glyph name="Otilde" format="2">
  <advance width="840"/>
  <unicode hex="00D5"/>
  <outline>
    <contour>
      <point x="263" y="350" type="curve" smooth="yes"/>
      <point x="263" y="247"/>
      <point x="322" y="178"/>
      <point x="420" y="178" type="curve" smooth="yes"/>
      <point x="518" y="178"/>
      <point x="577" y="247"/>
      <point x="577" y="350" type="curve" smooth="yes"/>
      <point x="577" y="453"/>
      <point x="523" y="522"/>
      <point x="420" y="522" type="curve" smooth="yes"/>
      <point x="322" y="522"/>
      <point x="263" y="453"/>
    </contour>
    <contour>
      <point x="30" y="350" type="curve" smooth="yes"/>
      <point x="30" y="574"/>
      <point x="201" y="720"/>
      <point x="420" y="720" type="curve" smooth="yes"/>
      <point x="644" y="720"/>
      <point x="810" y="574"/>
      <point x="810" y="350" type="curve" smooth="yes"/>
      <point x="810" y="126"/>
      <point x="649" y="-30"/>
      <point x="420" y="-30" type="curve" smooth="yes"/>
      <point x="191" y="-30"/>
      <point x="30" y="126"/>
    </contour>
    <contour>
      <point x="215" y="858" type="line"/>
      <point x="225" y="907"/>
      <point x="269" y="960"/>
      <point x="344" y="960" type="curve" smooth="yes"/>
      <point x="411" y="960"/>
      <point x="430" y="905"/>
      <point x="488" y="905" type="curve" smooth="yes"/>
      <point x="517" y="905"/>
      <point x="539" y="929"/>
      <point x="559" y="961" type="curve"/>
      <point x="645" y="868" type="line"/>
      <point x="629" y="831"/>
      <point x="564" y="775"/>
      <point x="494" y="775" type="curve" smooth="yes"/>
      <point x="439" y="775"/>
      <point x="395" y="832"/>
      <point x="343" y="832" type="curve" smooth="yes"/>
      <point x="307" y="832"/>
      <point x="298" y="796"/>
      <point x="298" y="781" type="curve"/>
    </contour>
  </outline>
</glyph>
<glyph name="acircumflex" format="2">
  <advance width="580"/>
  <unicode hex="00E2"/>
  <outline>
    <contour>
      <point x="216" y="139" type="curve" smooth="yes"/>
      <point x="216" y="115"/>
      <point x="238" y="106"/>
      <point x="263" y="106" type="curve" smooth="yes"/>
      <point x="303" y="106"/>
      <point x="345" y="124"/>
      <point x="345" y="190" type="curve"/>
      <point x="361" y="130" type="line"/>
      <point x="361" y="41"/>
      <point x="288" y="-10"/>
      <point x="193" y="-10" type="curve" smooth="yes"/>
      <point x="88" y="-10"/>
      <point x="20" y="41"/>
      <point x="20" y="130" type="curve" smooth="yes"/>
      <point x="20" y="217"/>
      <point x="100" y="275"/>
      <point x="221" y="275" type="curve" smooth="yes"/>
      <point x="279" y="275"/>
      <point x="354" y="257"/>
      <point x="378" y="233" type="curve"/>
      <point x="378" y="147" type="line"/>
      <point x="350" y="169"/>
      <point x="323" y="180"/>
      <point x="275" y="180" type="curve" smooth="yes"/>
      <point x="241" y="180"/>
      <point x="216" y="163"/>
    </contour>
    <contour>
      <point x="121" y="298" type="curve"/>
      <point x="62" y="424" type="line"/>
      <point x="126" y="449"/>
      <point x="210" y="475"/>
      <point x="293" y="475" type="curve" smooth="yes"/>
      <point x="428" y="475"/>
      <point x="530" y="419"/>
      <point x="530" y="320" type="curve" smooth="yes"/>
      <point x="530" y="0" type="line"/>
      <point x="345" y="0" type="line"/>
      <point x="345" y="272" type="line" smooth="yes"/>
      <point x="345" y="307"/>
      <point x="323" y="333"/>
      <point x="273" y="333" type="curve" smooth="yes"/>
      <point x="207" y="333"/>
      <point x="143" y="309"/>
    </contour>
    <contour>
      <point x="293" y="615" type="line"/>
      <point x="213" y="535" type="line"/>
      <point x="73" y="625" type="line"/>
      <point x="293" y="765" type="line"/>
      <point x="513" y="625" type="line"/>
      <point x="373" y="535" type="line"/>
    </contour>
  </outline>
</glyph>
<glyph name="ae" format="2">
  <advance width="939"/>
  <unicode hex="00E6"/>
  <outline>
    <contour>
      <point x="223" y="-10" type="curve" smooth="yes"/>
      <point x="93" y="-10"/>
      <point x="20" y="40"/>
      <point x="20" y="130" type="curve" smooth="yes"/>
      <point x="20" y="217"/>
      <point x="100" y="275"/>
      <point x="221" y="275" type="curve" smooth="yes"/>
      <point x="281" y="275"/>
      <point x="336" y="261"/>
      <point x="432" y="220" type="curve"/>
      <point x="345" y="220" type="line"/>
      <point x="345" y="272" type="line" smooth="yes"/>
      <point x="345" y="312"/>
      <point x="321" y="333"/>
      <point x="273" y="333" type="curve" smooth="yes"/>
      <point x="229" y="333"/>
      <point x="158" y="316"/>
      <point x="121" y="298" type="curve"/>
      <point x="62" y="424" type="line"/>
      <point x="152" y="459"/>
      <point x="224" y="475"/>
      <point x="293" y="475" type="curve" smooth="yes"/>
      <point x="395" y="475"/>
      <point x="447" y="440"/>
      <point x="457" y="362" type="curve"/>
      <point x="444" y="362" type="line"/>
      <point x="490" y="434"/>
      <point x="565" y="470"/>
      <point x="668" y="470" type="curve" smooth="yes"/>
      <point x="822" y="470"/>
      <point x="905" y="389"/>
      <point x="905" y="239" type="curve" smooth="yes"/>
      <point x="905" y="220"/>
      <point x="904" y="198"/>
      <point x="903" y="190" type="curve"/>
      <point x="538" y="190" type="line"/>
      <point x="557" y="208" type="line"/>
      <point x="563" y="146"/>
      <point x="588" y="120"/>
      <point x="638" y="120" type="curve" smooth="yes"/>
      <point x="680" y="120"/>
      <point x="720" y="138"/>
      <point x="734" y="165" type="curve"/>
      <point x="912" y="137" type="line"/>
      <point x="860" y="37"/>
      <point x="778" y="-10"/>
      <point x="648" y="-10" type="curve" smooth="yes"/>
      <point x="534" y="-10"/>
      <point x="464" y="26"/>
      <point x="432" y="99" type="curve"/>
      <point x="444" y="98" type="line"/>
      <point x="417" y="28"/>
      <point x="339" y="-10"/>
    </contour>
    <contour>
      <point x="263" y="106" type="curve" smooth="yes"/>
      <point x="315" y="106"/>
      <point x="346" y="134"/>
      <point x="346" y="182" type="curve"/>
      <point x="348" y="144" type="line"/>
      <point x="344" y="179" type="line"/>
      <point x="374" y="152" type="line"/>
      <point x="344" y="170"/>
      <point x="309" y="180"/>
      <point x="275" y="180" type="curve" smooth="yes"/>
      <point x="235" y="180"/>
      <point x="216" y="167"/>
      <point x="216" y="139" type="curve" smooth="yes"/>
      <point x="216" y="117"/>
      <point x="231" y="106"/>
    </contour>
    <contour>
      <point x="556" y="234" type="curve"/>
      <point x="538" y="284" type="line"/>
      <point x="720" y="284" type="line"/>
      <point x="697" y="250" type="line"/>
      <point x="699" y="261"/>
      <point x="699" y="260"/>
      <point x="699" y="266" type="curve" smooth="yes"/>
      <point x="699" y="322"/>
      <point x="677" y="350"/>
      <point x="633" y="350" type="curve" smooth="yes"/>
      <point x="581" y="350"/>
      <point x="556" y="312"/>
    </contour>
  </outline>
</glyph>
<glyph name="igrave" format="2">
  <advance width="286"/>
  <unicode hex="00EC"/>
  <outline>
    <contour>
      <point x="49" y="460" type="line"/>
      <point x="236" y="460" type="line"/>
      <point x="236" y="0" type="line"/>
      <point x="49" y="0" type="line"/>
    </contour>
    <contour>
      <point x="-50" y="681" type="line"/>
      <point x="90" y="741" type="line"/>
      <point x="240" y="581" type="line"/>
      <point x="130" y="531" type="line"/>
    </contour>
  </outline>
</glyph>
<glyph name="ntilde" format="2">
  <advance width="605"/>
  <unicode hex="00F1"/>
  <outline>
    <contour>
      <point x="245" y="460" type="line"/>
      <point x="245" y="0" type="line"/>
      <point x="50" y="0" type="line"/>
      <point x="50" y="460" type="line"/>
    </contour>
    <contour>
      <point x="350" y="280" type="line" smooth="yes"/>
      <point x="350" y="321"/>
      <point x="342" y="346"/>
      <point x="302" y="346" type="curve" smooth="yes"/>
      <point x="267" y="346"/>
      <point x="245" y="326"/>
      <point x="245" y="280" type="curve"/>
      <point x="219" y="270" type="line"/>
      <point x="219" y="379"/>
      <point x="262" y="471"/>
      <point x="387" y="471" type="curve" smooth="yes"/>
      <point x="512" y="471"/>
      <point x="555" y="409"/>
      <point x="555" y="300" type="curve" smooth="yes"/>
      <point x="555" y="0" type="line"/>
      <point x="350" y="0" type="line"/>
    </contour>
    <contour>
      <point x="88" y="614" type="line"/>
      <point x="98" y="663"/>
      <point x="141" y="716"/>
      <point x="216" y="716" type="curve" smooth="yes"/>
      <point x="283" y="716"/>
      <point x="302" y="661"/>
      <point x="360" y="661" type="curve" smooth="yes"/>
      <point x="389" y="661"/>
      <point x="412" y="685"/>
      <point x="432" y="717" type="curve"/>
      <point x="518" y="624" type="line"/>
      <point x="502" y="587"/>
      <point x="436" y="531"/>
      <point x="366" y="531" type="curve" smooth="yes"/>
      <point x="311" y="531"/>
      <point x="268" y="588"/>
      <point x="216" y="588" type="curve" smooth="yes"/>
      <point x="180" y="588"/>
      <point x="170" y="552"/>
      <point x="170" y="537" type="curve"/>
    </contour>
  </outline>
</glyph>
<glyph name="oslash" format="2">
  <advance width="546"/>
  <unicode hex="00F8"/>
  <outline>
    <contour>
      <point x="30" y="230" type="curve" smooth="yes"/>
      <point x="30" y="389"/>
      <point x="153" y="470"/>
      <point x="308" y="470" type="curve" smooth="yes"/>
      <point x="463" y="470"/>
      <point x="586" y="389"/>
      <point x="586" y="230" type="curve" smooth="yes"/>
      <point x="586" y="71"/>
      <point x="463" y="-10"/>
      <point x="308" y="-10" type="curve" smooth="yes"/>
      <point x="153" y="-10"/>
      <point x="30" y="71"/>
    </contour>
    <contour>
      <point x="211" y="230" type="curve" smooth="yes"/>
      <point x="211" y="164"/>
      <point x="258" y="135"/>
      <point x="308" y="135" type="curve" smooth="yes"/>
      <point x="358" y="135"/>
      <point x="405" y="164"/>
      <point x="405" y="230" type="curve" smooth="yes"/>
      <point x="405" y="286"/>
      <point x="358" y="325"/>
      <point x="308" y="325" type="curve" smooth="yes"/>
      <point x="258" y="325"/>
      <point x="211" y="286"/>
    </contour>
    <contour>
      <point x="465" y="510" type="line"/>
      <point x="530" y="470" type="line"/>
      <point x="140" y="-54" type="line"/>
      <point x="75" y="-14" type="line"/>
    </contour>
  </outline>
</glyph>
<glyph name="Aogonek" format="2">
  <advance width="780"/>
  <unicode hex="0104"/>
  <outline>
    <contour>
      <point x="207" y="90" type="line"/>
      <point x="207" y="248" type="line"/>
      <point x="577" y="248" type="line"/>
      <point x="577" y="90" type="line"/>
    </contour>
    <contour>
      <point x="390" y="382" type="line"/>
      <point x="304" y="189" type="line"/>
      <point x="321" y="139" type="line"/>
      <point x="245" y="0" type="line"/>
      <point x="-5" y="0" type="line"/>
      <point x="390" y="750" type="line"/>
      <point x="785" y="0" type="line"/>
      <point x="535" y="0" type="line"/>
      <point x="461" y="132" type="line"/>
      <point x="476" y="189" type="line"/>
    </contour>
    <contour>
      <point x="710" y="-100" type="curve"/>
      <point x="743" y="-180" type="line"/>
      <point x="728" y="-200"/>
      <point x="698" y="-220"/>
      <point x="635" y="-220" type="curve" smooth="yes"/>
      <point x="581" y="-220"/>
      <point x="522" y="-189"/>
      <point x="522" y="-120" type="curve" smooth="yes"/>
      <point x="522" y="-51"/>
      <point x="594" y="-11"/>
      <point x="664" y="25" type="curve"/>
      <point x="705" y="0" type="line"/>
      <point x="653" y="-32"/>
      <point x="632" y="-63"/>
      <point x="632" y="-90" type="curve" smooth="yes"/>
      <point x="632" y="-108"/>
      <point x="640" y="-120"/>
      <point x="660" y="-120" type="curve" smooth="yes"/>
      <point x="676" y="-120"/>
      <point x="696" y="-113"/>
    </contour>
  </outline>
</glyph>
<glyph name="Edotaccent" format="2">
  <advance width="635"/>
  <unicode hex="0116"/>
  <outline>
    <contour>
      <point x="222" y="0" type="line"/>
      <point x="222" y="175" type="line"/>
      <point x="575" y="175" type="line"/>
      <point x="575" y="0" type="line"/>
    </contour>
    <contour>
      <point x="222" y="525" type="line"/>
      <point x="222" y="700" type="line"/>
      <point x="575" y="700" type="line"/>
      <point x="575" y="525" type="line"/>
    </contour>
    <contour>
      <point x="222" y="275" type="line"/>
      <point x="222" y="445" type="line"/>
      <point x="555" y="445" type="line"/>
      <point x="555" y="275" type="line"/>
    </contour>
    <contour>
      <point x="70" y="700" type="line"/>
      <point x="280" y="700" type="line"/>
      <point x="280" y="0" type="line"/>
      <point x="70" y="0" type="line"/>
    </contour>
    <contour>
      <point x="214" y="878" type="curve" smooth="yes"/>
      <point x="214" y="937"/>
      <point x="262" y="976"/>
      <point x="322" y="976" type="curve" smooth="yes"/>
      <point x="382" y="976"/>
      <point x="430" y="937"/>
      <point x="430" y="878" type="curve" smooth="yes"/>
      <point x="430" y="819"/>
      <point x="382" y="780"/>
      <point x="322" y="780" type="curve" smooth="yes"/>
      <point x="262" y="780"/>
      <point x="214" y="819"/>
    </contour>
  </outline>
</glyph>
<glyph name="uni0123" format="2">
  <advance width="570"/>
  <unicode hex="0123"/>
  <outline>
    <contour>
      <point x="40" y="-35" type="curve"/>
      <point x="227" y="-35" type="line"/>
      <point x="235" y="-86"/>
      <point x="266" y="-95"/>
      <point x="306" y="-95" type="curve" smooth="yes"/>
      <point x="366" y="-95"/>
      <point x="400" y="-56"/>
      <point x="400" y="10" type="curve" smooth="yes"/>
      <point x="400" y="460" type="line"/>
      <point x="585" y="460" type="line"/>
      <point x="585" y="10" type="line" smooth="yes"/>
      <point x="585" y="-179"/>
      <point x="471" y="-245"/>
      <point x="316" y="-245" type="curve" smooth="yes"/>
      <point x="121" y="-245"/>
      <point x="58" y="-159"/>
    </contour>
    <contour>
      <point x="30" y="240" type="curve" smooth="yes"/>
      <point x="30" y="399"/>
      <point x="138" y="470"/>
      <point x="243" y="470" type="curve" smooth="yes"/>
      <point x="358" y="470"/>
      <point x="446" y="389"/>
      <point x="446" y="240" type="curve" smooth="yes"/>
      <point x="446" y="91"/>
      <point x="358" y="10"/>
      <point x="243" y="10" type="curve" smooth="yes"/>
      <point x="138" y="10"/>
      <point x="30" y="81"/>
    </contour>
    <contour>
      <point x="236" y="240" type="curve" smooth="yes"/>
      <point x="236" y="189"/>
      <point x="273" y="160"/>
      <point x="318" y="160" type="curve" smooth="yes"/>
      <point x="358" y="160"/>
      <point x="400" y="184"/>
      <point x="400" y="240" type="curve" smooth="yes"/>
      <point x="400" y="296"/>
      <point x="358" y="320"/>
      <point x="318" y="320" type="curve" smooth="yes"/>
      <point x="273" y="320"/>
      <point x="236" y="291"/>
    </contour>
    <contour>
      <point x="326.546" y="538.984" type="line"/>
      <point x="139.113" y="602.624" type="line"/>
      <point x="311.022" y="828.838" type="line"/>
      <point x="453.402" y="781.332" type="line"/>
    </contour>
  </outline>
</glyph>
<glyph name="ij" format="2">
  <advance width="566"/>
  <unicode hex="0133"/>
  <outline>
    <contour>
      <point x="315" y="622" type="curve" smooth="yes"/>
      <point x="315" y="681"/>
      <point x="363" y="720"/>
      <point x="423" y="720" type="curve" smooth="yes"/>
      <point x="483" y="720"/>
      <point x="531" y="681"/>
      <point x="531" y="622" type="curve" smooth="yes"/>
      <point x="531" y="563"/>
      <point x="483" y="524"/>
      <point x="423" y="524" type="curve" smooth="yes"/>
      <point x="363" y="524"/>
      <point x="315" y="563"/>
    </contour>
    <contour>
      <point x="237" y="-55" type="line"/>
      <point x="250" y="-70"/>
      <point x="263" y="-80"/>
      <point x="282" y="-80" type="curve" smooth="yes"/>
      <point x="312" y="-80"/>
      <point x="330" y="-61"/>
      <point x="330" y="-25" type="curve" smooth="yes"/>
      <point x="330" y="460" type="line"/>
      <point x="515" y="460" type="line"/>
      <point x="515" y="-80" type="line" smooth="yes"/>
      <point x="515" y="-179"/>
      <point x="451" y="-250"/>
      <point x="317" y="-250" type="curve" smooth="yes"/>
      <point x="234" y="-250"/>
      <point x="191" y="-213"/>
      <point x="166" y="-193" type="curve"/>
    </contour>
    <contour>
      <point x="35" y="622" type="curve" smooth="yes"/>
      <point x="35" y="681"/>
      <point x="83" y="720"/>
      <point x="143" y="720" type="curve" smooth="yes"/>
      <point x="203" y="720"/>
      <point x="251" y="681"/>
      <point x="251" y="622" type="curve" smooth="yes"/>
      <point x="251" y="563"/>
      <point x="203" y="524"/>
      <point x="143" y="524" type="curve" smooth="yes"/>
      <point x="83" y="524"/>
      <point x="35" y="563"/>
    </contour>
    <contour>
      <point x="49" y="460" type="line"/>
      <point x="236" y="460" type="line"/>
      <point x="236" y="0" type="line"/>
      <point x="49" y="0" type="line"/>
    </contour>
  </outline>
</glyph>
<glyph name="ncaron" format="2">
  <advance width="605"/>
  <unicode hex="0148"/>
  <outline>
    <contour>
      <point x="245" y="460" type="line"/>
      <point x="245" y="0" type="line"/>
      <point x="50" y="0" type="line"/>
      <point x="50" y="460" type="line"/>
    </contour>
    <contour>
      <point x="350" y="280" type="line" smooth="yes"/>
      <point x="350" y="321"/>
      <point x="342" y="346"/>
      <point x="302" y="346" type="curve" smooth="yes"/>
      <point x="267" y="346"/>
      <point x="245" y="326"/>
      <point x="245" y="280" type="curve"/>
      <point x="219" y="270" type="line"/>
      <point x="219" y="379"/>
      <point x="262" y="471"/>
      <point x="387" y="471" type="curve" smooth="yes"/>
      <point x="512" y="471"/>
      <point x="555" y="409"/>
      <point x="555" y="300" type="curve" smooth="yes"/>
      <point x="555" y="0" type="line"/>
      <point x="350" y="0" type="line"/>
    </contour>
    <contour>
      <point x="302" y="681" type="line"/>
      <point x="382" y="761" type="line"/>
      <point x="522" y="671" type="line"/>
      <point x="302" y="531" type="line"/>
      <point x="82" y="671" type="line"/>
      <point x="222" y="761" type="line"/>
    </contour>
  </outline>
</glyph>
<glyph name="napostrophe" format="2">
  <advance width="815"/>
  <unicode hex="0149"/>
  <outline>
    <contour>
      <point x="455" y="460" type="line"/>
      <point x="455" y="0" type="line"/>
      <point x="260" y="0" type="line"/>
      <point x="260" y="460" type="line"/>
    </contour>
    <contour>
      <point x="560" y="280" type="line" smooth="yes"/>
      <point x="560" y="321"/>
      <point x="552" y="346"/>
      <point x="512" y="346" type="curve" smooth="yes"/>
      <point x="477" y="346"/>
      <point x="455" y="326"/>
      <point x="455" y="280" type="curve"/>
      <point x="429" y="270" type="line"/>
      <point x="429" y="379"/>
      <point x="472" y="471"/>
      <point x="597" y="471" type="curve" smooth="yes"/>
      <point x="722" y="471"/>
      <point x="765" y="409"/>
      <point x="765" y="300" type="curve" smooth="yes"/>
      <point x="765" y="0" type="line"/>
      <point x="560" y="0" type="line"/>
    </contour>
    <contour>
      <point x="100" y="700" type="line"/>
      <point x="295" y="700" type="line"/>
      <point x="190" y="430" type="line"/>
      <point x="50" y="430" type="line"/>
    </contour>
  </outline>
</glyph>
<glyph name="oe" format="2">
  <advance width="900"/>
  <unicode hex="0153"/>
  <outline>
    <contour>
      <point x="660" y="250" type="line" smooth="yes"/>
      <point x="660" y="316"/>
      <point x="638" y="350"/>
      <point x="598" y="350" type="curve" smooth="yes"/>
      <point x="558" y="350"/>
      <point x="523" y="326"/>
      <point x="523" y="260" type="curve"/>
      <point x="521" y="230" type="line"/>
      <point x="521" y="154"/>
      <point x="552" y="115"/>
      <point x="602" y="115" type="curve" smooth="yes"/>
      <point x="649" y="115"/>
      <point x="672" y="136"/>
      <point x="696" y="166" type="curve"/>
      <point x="872" y="137" type="line"/>
      <point x="836" y="57"/>
      <point x="737" y="-10"/>
      <point x="638" y="-10" type="curve" smooth="yes"/>
      <point x="513" y="-10"/>
      <point x="430" y="91"/>
      <point x="430" y="230" type="curve" smooth="yes"/>
      <point x="430" y="247"/>
      <point x="431" y="263"/>
      <point x="434" y="279" type="curve" smooth="yes"/>
      <point x="453" y="392"/>
      <point x="539" y="470"/>
      <point x="658" y="470" type="curve" smooth="yes"/>
      <point x="768" y="470"/>
      <point x="865" y="379"/>
      <point x="865" y="234" type="curve" smooth="yes"/>
      <point x="865" y="226"/>
      <point x="863" y="198"/>
      <point x="862" y="190" type="curve"/>
      <point x="660" y="230" type="line"/>
    </contour>
    <contour>
      <point x="481" y="190" type="line"/>
      <point x="481" y="283" type="line"/>
      <point x="844" y="283" type="line"/>
      <point x="862" y="190" type="line"/>
    </contour>
    <contour>
      <point x="35" y="230" type="curve" smooth="yes"/>
      <point x="35" y="379"/>
      <point x="138" y="470"/>
      <point x="263" y="470" type="curve" smooth="yes"/>
      <point x="388" y="470"/>
      <point x="466" y="379"/>
      <point x="466" y="230" type="curve" smooth="yes"/>
      <point x="466" y="81"/>
      <point x="388" y="-10"/>
      <point x="263" y="-10" type="curve" smooth="yes"/>
      <point x="138" y="-10"/>
      <point x="35" y="81"/>
    </contour>
    <contour>
      <point x="226" y="230" type="curve" smooth="yes"/>
      <point x="226" y="174"/>
      <point x="258" y="145"/>
      <point x="303" y="145" type="curve" smooth="yes"/>
      <point x="353" y="145"/>
      <point x="380" y="174"/>
      <point x="380" y="230" type="curve" smooth="yes"/>
      <point x="380" y="286"/>
      <point x="353" y="315"/>
      <point x="303" y="315" type="curve" smooth="yes"/>
      <point x="258" y="315"/>
      <point x="226" y="286"/>
    </contour>
  </outline>
</glyph>
<glyph name="zdotaccent" format="2">
  <advance width="560"/>
  <unicode hex="017C"/>
  <outline>
    <contour>
      <point x="230" y="285" type="line"/>
      <point x="65" y="285" type="line"/>
      <point x="65" y="460" type="line"/>
      <point x="545" y="460" type="line"/>
      <point x="349" y="175" type="line"/>
      <point x="505" y="175" type="line"/>
      <point x="505" y="0" type="line"/>
      <point x="15" y="0" type="line"/>
    </contour>
    <contour>
      <point x="197" y="629" type="curve" smooth="yes"/>
      <point x="197" y="688"/>
      <point x="245" y="727"/>
      <point x="305" y="727" type="curve" smooth="yes"/>
      <point x="365" y="727"/>
      <point x="413" y="688"/>
      <point x="413" y="629" type="curve" smooth="yes"/>
      <point x="413" y="570"/>
      <point x="365" y="531"/>
      <point x="305" y="531" type="curve" smooth="yes"/>
      <point x="245" y="531"/>
      <point x="197" y="570"/>
    </contour>
  </outline>
</glyph>
<glyph name="Zcaron" format="2">
  <advance width="665"/>
  <unicode hex="017D"/>
  <outline>
    <contour>
      <point x="70" y="505" type="line"/>
      <point x="70" y="700" type="line"/>
      <point x="655" y="700" type="line"/>
      <point x="347" y="185" type="line"/>
      <point x="610" y="185" type="line"/>
      <point x="610" y="0" type="line"/>
      <point x="5" y="0" type="line"/>
      <point x="306" y="505" type="line"/>
    </contour>
    <contour>
      <point x="362" y="930" type="line"/>
      <point x="442" y="1010" type="line"/>
      <point x="582" y="920" type="line"/>
      <point x="362" y="780" type="line"/>
      <point x="142" y="920" type="line"/>
      <point x="282" y="1010" type="line"/>
    </contour>
  </outline>
</glyph>
<glyph name="breve" format="2">
  <advance width="546"/>
  <unicode hex="02D8"/>
  <outline>
    <contour>
      <point x="105" y="850" type="curve"/>
      <point x="221" y="850" type="line"/>
      <point x="221" y="809"/>
      <point x="253" y="800"/>
      <point x="273" y="800" type="curve" smooth="yes"/>
      <point x="293" y="800"/>
      <point x="325" y="809"/>
      <point x="325" y="850" type="curve"/>
      <point x="441" y="850" type="line"/>
      <point x="441" y="761"/>
      <point x="378" y="700"/>
      <point x="273" y="700" type="curve" smooth="yes"/>
      <point x="168" y="700"/>
      <point x="105" y="761"/>
    </contour>
  </outline>
</glyph>
<glyph name="ring" format="2">
  <advance width="358"/>
  <unicode hex="02DA"/>
  <outline>
    <contour>
      <point x="40" y="760" type="curve" smooth="yes"/>
      <point x="40" y="834"/>
      <point x="98" y="885"/>
      <point x="178" y="885" type="curve" smooth="yes"/>
      <point x="258" y="885"/>
      <point x="318" y="834"/>
      <point x="318" y="760" type="curve" smooth="yes"/>
      <point x="318" y="686"/>
      <point x="258" y="635"/>
      <point x="178" y="635" type="curve" smooth="yes"/>
      <point x="98" y="635"/>
      <point x="40" y="686"/>
    </contour>
    <contour>
      <point x="135" y="760" type="curve" smooth="yes"/>
      <point x="135" y="732"/>
      <point x="153" y="716"/>
      <point x="178" y="716" type="curve" smooth="yes"/>
      <point x="203" y="716"/>
      <point x="222" y="732"/>
      <point x="222" y="760" type="curve" smooth="yes"/>
      <point x="222" y="788"/>
      <point x="203" y="805"/>
      <point x="178" y="805" type="curve" smooth="yes"/>
      <point x="153" y="805"/>
      <point x="135" y="788"/>
    </contour>
  </outline>
</glyph>
<glyph name="ogonek" format="2">
  <advance width="260"/>
  <unicode hex="02DB"/>
  <outline>
    <contour>
      <point x="194" y="-100" type="curve"/>
      <point x="227" y="-180" type="line"/>
      <point x="212" y="-200"/>
      <point x="182" y="-220"/>
      <point x="119" y="-220" type="curve" smooth="yes"/>
      <point x="65" y="-220"/>
      <point x="6" y="-189"/>
      <point x="6" y="-120" type="curve" smooth="yes"/>
      <point x="6" y="-51"/>
      <point x="78" y="-11"/>
      <point x="148" y="25" type="curve"/>
      <point x="189" y="0" type="line"/>
      <point x="137" y="-32"/>
      <point x="116" y="-63"/>
      <point x="116" y="-90" type="curve" smooth="yes"/>
      <point x="116" y="-108"/>
      <point x="124" y="-120"/>
      <point x="144" y="-120" type="curve" smooth="yes"/>
      <point x="160" y="-120"/>
      <point x="180" y="-113"/>
    </contour>
  </outline>
</glyph>
<glyph name="acutecomb" format="2">
  <unicode hex="0301"/>
  <outline>
    <contour>
      <point x="125" y="535" type="line"/>
      <point x="15" y="585" type="line"/>
      <point x="165" y="745" type="line"/>
      <point x="305" y="685" type="line"/>
    </contour>
  </outline>
</glyph>
<glyph name="uni0302" format="2">
  <unicode hex="0302"/>
  <outline>
    <contour>
      <point x="82" y="551" type="line"/>
      <point x="0" y="656" type="line"/>
      <point x="184" y="776" type="line"/>
      <point x="367" y="656" type="line"/>
      <point x="285" y="551" type="line"/>
      <point x="164" y="647" type="line"/>
      <point x="202" y="647" type="line"/>
    </contour>
  </outline>
</glyph>
<glyph name="tildecomb" format="2">
  <unicode hex="0303"/>
  <outline>
    <contour>
      <point x="83" y="568" type="curve"/>
      <point x="0" y="645" type="line"/>
      <point x="11" y="694"/>
      <point x="71" y="747"/>
      <point x="139" y="747" type="curve" smooth="yes"/>
      <point x="209" y="747"/>
      <point x="212" y="692"/>
      <point x="263" y="692" type="curve" smooth="yes"/>
      <point x="297" y="692"/>
      <point x="321" y="716"/>
      <point x="344" y="748" type="curve"/>
      <point x="430" y="655" type="line"/>
      <point x="413" y="618"/>
      <point x="329" y="562"/>
      <point x="269" y="562" type="curve" smooth="yes"/>
      <point x="209" y="562"/>
      <point x="184" y="619"/>
      <point x="138" y="619" type="curve" smooth="yes"/>
      <point x="108" y="619"/>
      <point x="83" y="596"/>
    </contour>
  </outline>
</glyph>
<glyph name="uni030C" format="2">
  <unicode hex="030C"/>
  <outline>
    <contour>
      <point x="184" y="551" type="line"/>
      <point x="0" y="672" type="line"/>
      <point x="82" y="776" type="line"/>
      <point x="202" y="680" type="line"/>
      <point x="164" y="680" type="line"/>
      <point x="285" y="776" type="line"/>
      <point x="367" y="672" type="line"/>
    </contour>
  </outline>
</glyph>
<glyph name="uni0312" format="2">
  <unicode hex="0312"/>
  <outline>
    <contour>
      <point x="195" y="496" type="line"/>
      <point x="0" y="530" type="line"/>
      <point x="135" y="780" type="line"/>
      <point x="283" y="755" type="line"/>
    </contour>
  </outline>
</glyph>
<glyph name="uni0327" format="2">
  <unicode hex="0327"/>
  <outline>
    <contour>
      <point x="148" y="-213" type="curve" smooth="yes"/>
      <point x="100" y="-213"/>
      <point x="36" y="-202"/>
      <point x="0" y="-184" type="curve"/>
      <point x="32" y="-112" type="line"/>
      <point x="54" y="-122"/>
      <point x="93" y="-130"/>
      <point x="121" y="-130" type="curve" smooth="yes"/>
      <point x="144" y="-130"/>
      <point x="156" y="-118"/>
      <point x="156" y="-98" type="curve" smooth="yes"/>
      <point x="156" y="-81"/>
      <point x="143" y="-74"/>
      <point x="113" y="-74" type="curve" smooth="yes"/>
      <point x="95" y="-74"/>
      <point x="70" y="-73"/>
      <point x="44" y="-75" type="curve"/>
      <point x="106" y="78" type="line"/>
      <point x="206" y="73" type="line"/>
      <point x="153" y="-48" type="line"/>
      <point x="82" y="-28" type="line"/>
      <point x="112" y="-28"/>
      <point x="156" y="-20"/>
      <point x="196" y="-20" type="curve" smooth="yes"/>
      <point x="239" y="-20"/>
      <point x="270" y="-55"/>
      <point x="270" y="-102" type="curve" smooth="yes"/>
      <point x="270" y="-166"/>
      <point x="218" y="-213"/>
    </contour>
  </outline>
</glyph>
<glyph name="uni03A9" format="2">
  <advance width="600"/>
  <unicode hex="03A9"/>
  <outline>
    <contour>
      <point x="66" y="0" type="line"/>
      <point x="284" y="0" type="line"/>
      <point x="284" y="119" type="line"/>
      <point x="242" y="155"/>
      <point x="218" y="202"/>
      <point x="218" y="248" type="curve" smooth="yes"/>
      <point x="218" y="307"/>
      <point x="255" y="356"/>
      <point x="300" y="356" type="curve" smooth="yes"/>
      <point x="345" y="356"/>
      <point x="382" y="307"/>
      <point x="382" y="248" type="curve" smooth="yes"/>
      <point x="382" y="201"/>
      <point x="358" y="155"/>
      <point x="316" y="119" type="curve"/>
      <point x="316" y="0" type="line"/>
      <point x="534" y="0" type="line"/>
      <point x="534" y="168" type="line"/>
      <point x="446" y="148" type="line"/>
      <point x="508" y="206"/>
      <point x="530" y="251"/>
      <point x="530" y="317" type="curve" smooth="yes"/>
      <point x="530" y="455"/>
      <point x="431" y="559"/>
      <point x="300" y="559" type="curve" smooth="yes"/>
      <point x="169" y="559"/>
      <point x="70" y="455"/>
      <point x="70" y="317" type="curve" smooth="yes"/>
      <point x="70" y="251"/>
      <point x="92" y="206"/>
      <point x="154" y="148" type="curve"/>
      <point x="66" y="168" type="line"/>
    </contour>
  </outline>
</glyph>
<glyph name="uni0401" format="2">
  <advance width="635"/>
  <unicode hex="0401"/>
  <outline>
    <contour>
      <point x="222" y="0" type="line"/>
      <point x="222" y="175" type="line"/>
      <point x="575" y="175" type="line"/>
      <point x="575" y="0" type="line"/>
    </contour>
    <contour>
      <point x="222" y="525" type="line"/>
      <point x="222" y="700" type="line"/>
      <point x="575" y="700" type="line"/>
      <point x="575" y="525" type="line"/>
    </contour>
    <contour>
      <point x="222" y="275" type="line"/>
      <point x="222" y="445" type="line"/>
      <point x="555" y="445" type="line"/>
      <point x="555" y="275" type="line"/>
    </contour>
    <contour>
      <point x="70" y="700" type="line"/>
      <point x="280" y="700" type="line"/>
      <point x="280" y="0" type="line"/>
      <point x="70" y="0" type="line"/>
    </contour>
    <contour>
      <point x="349.5" y="878" type="curve" smooth="yes"/>
      <point x="349.5" y="937"/>
      <point x="397.5" y="976"/>
      <point x="457.5" y="976" type="curve" smooth="yes"/>
      <point x="517.5" y="976"/>
      <point x="565.5" y="937"/>
      <point x="565.5" y="878" type="curve" smooth="yes"/>
      <point x="565.5" y="819"/>
      <point x="517.5" y="780"/>
      <point x="457.5" y="780" type="curve" smooth="yes"/>
      <point x="397.5" y="780"/>
      <point x="349.5" y="819"/>
    </contour>
    <contour>
      <point x="79.5" y="878" type="curve" smooth="yes"/>
      <point x="79.5" y="937"/>
      <point x="127.5" y="976"/>
      <point x="187.5" y="976" type="curve" smooth="yes"/>
      <point x="247.5" y="976"/>
      <point x="295.5" y="937"/>
      <point x="295.5" y="878" type="curve" smooth="yes"/>
      <point x="295.5" y="819"/>
      <point x="247.5" y="780"/>
      <point x="187.5" y="780" type="curve" smooth="yes"/>
      <point x="127.5" y="780"/>
      <point x="79.5" y="819"/>
    </contour>
  </outline>
</glyph>
<glyph name="uni040D" format="2">
  <advance width="805"/>
  <unicode hex="040D"/>
  <outline>
    <contour>
      <point x="730" y="475" type="line"/>
      <point x="70" y="-35" type="line"/>
      <point x="75" y="225" type="line"/>
      <point x="735" y="735" type="line"/>
    </contour>
    <contour>
      <point x="280" y="700" type="line"/>
      <point x="280" y="165" type="line"/>
      <point x="70" y="-35" type="line"/>
      <point x="70" y="700" type="line"/>
    </contour>
    <contour>
      <point x="735" y="735" type="line"/>
      <point x="735" y="0" type="line"/>
      <point x="525" y="0" type="line"/>
      <point x="525" y="525" type="line"/>
    </contour>
    <contour>
      <point x="245" y="915" type="line"/>
      <point x="385" y="975" type="line"/>
      <point x="535" y="815" type="line"/>
      <point x="425" y="765" type="line"/>
    </contour>
  </outline>
</glyph>
<glyph name="uni0435" format="2">
  <advance width="612"/>
  <unicode hex="0435"/>
  <outline>
    <contour>
      <point x="136" y="190" type="line"/>
      <point x="136" y="284" type="line"/>
      <point x="367.382" y="284" type="line"/>
      <point x="360.964" y="329.27"/>
      <point x="342.042" y="350"/>
      <point x="303" y="350" type="curve" smooth="yes"/>
      <point x="253" y="350"/>
      <point x="228" y="316"/>
      <point x="228" y="250" type="curve"/>
      <point x="226" y="230" type="line"/>
      <point x="226" y="144"/>
      <point x="268" y="120"/>
      <point x="308" y="120" type="curve" smooth="yes"/>
      <point x="355" y="120"/>
      <point x="388" y="135"/>
      <point x="404" y="165" type="curve"/>
      <point x="582" y="137" type="line"/>
      <point x="536" y="47"/>
      <point x="457" y="-10"/>
      <point x="318" y="-10" type="curve" smooth="yes"/>
      <point x="123" y="-10"/>
      <point x="30" y="91"/>
      <point x="30" y="230" type="curve" smooth="yes"/>
      <point x="30" y="247"/>
      <point x="31" y="263"/>
      <point x="34" y="279" type="curve" smooth="yes"/>
      <point x="53" y="392"/>
      <point x="139" y="470"/>
      <point x="308" y="470" type="curve" smooth="yes"/>
      <point x="488" y="470"/>
      <point x="575" y="384"/>
      <point x="575" y="239" type="curve" smooth="yes"/>
      <point x="575" y="231"/>
      <point x="575" y="211"/>
      <point x="573" y="190" type="curve"/>
    </contour>
  </outline>
</glyph>
<glyph name="uni0437" format="2">
  <advance width="576"/>
  <unicode hex="0437"/>
  <outline>
    <contour>
      <point x="293" y="230" type="curve"/>
      <point x="293" y="272" type="line"/>
      <point x="323" y="272"/>
      <point x="338" y="286"/>
      <point x="338" y="306" type="curve" smooth="yes"/>
      <point x="338" y="325"/>
      <point x="322" y="338"/>
      <point x="303" y="338" type="curve" smooth="yes"/>
      <point x="283" y="338"/>
      <point x="262" y="327"/>
      <point x="261" y="296" type="curve"/>
      <point x="90" y="296" type="line"/>
      <point x="90" y="405"/>
      <point x="171" y="470"/>
      <point x="301" y="470" type="curve" smooth="yes"/>
      <point x="422" y="470"/>
      <point x="511" y="413"/>
      <point x="511" y="333" type="curve" smooth="yes"/>
      <point x="511" y="265"/>
      <point x="448" y="220"/>
    </contour>
    <contour>
      <point x="299" y="-10" type="curve" smooth="yes"/>
      <point x="153" y="-10"/>
      <point x="70" y="56"/>
      <point x="60" y="165" type="curve"/>
      <point x="241" y="165" type="line"/>
      <point x="251" y="129"/>
      <point x="278" y="120"/>
      <point x="298" y="120" type="curve" smooth="yes"/>
      <point x="328" y="120"/>
      <point x="352" y="133"/>
      <point x="352" y="159" type="curve" smooth="yes"/>
      <point x="352" y="185"/>
      <point x="333" y="198"/>
      <point x="293" y="198" type="curve"/>
      <point x="293" y="260" type="line"/>
      <point x="448" y="270"/>
      <point x="531" y="214"/>
      <point x="531" y="134" type="curve" smooth="yes"/>
      <point x="531" y="48"/>
      <point x="436" y="-10"/>
    </contour>
  </outline>
</glyph>
<glyph name="uni0449" format="2">
  <advance width="910"/>
  <unicode hex="0449"/>
  <outline>
    <contour>
      <point x="528" y="155" type="line"/>
      <point x="635" y="155" type="line"/>
      <point x="635" y="460" type="line"/>
      <point x="820" y="460" type="line"/>
      <point x="820" y="155" type="line"/>
      <point x="900" y="155" type="line"/>
      <point x="900" y="-110" type="line"/>
      <point x="715" y="-110" type="line"/>
      <point x="715" y="0" type="line"/>
      <point x="50" y="0" type="line"/>
      <point x="50" y="460" type="line"/>
      <point x="235" y="460" type="line"/>
      <point x="235" y="155" type="line"/>
      <point x="343" y="155" type="line"/>
      <point x="343" y="460" type="line"/>
      <point x="528" y="460" type="line"/>
    </contour>
  </outline>
</glyph>
<glyph name="uni044E" format="2">
  <advance width="866"/>
  <unicode hex="044E"/>
  <outline>
    <contour>
      <point x="97" y="175" type="line"/>
      <point x="97" y="310" type="line"/>
      <point x="427" y="310" type="line"/>
      <point x="427" y="175" type="line"/>
    </contour>
    <contour>
      <point x="50" y="460" type="line"/>
      <point x="235" y="460" type="line"/>
      <point x="235" y="0" type="line"/>
      <point x="50" y="0" type="line"/>
    </contour>
    <contour>
      <point x="280" y="230" type="curve" smooth="yes"/>
      <point x="280" y="379"/>
      <point x="398" y="471"/>
      <point x="558" y="471" type="curve" smooth="yes"/>
      <point x="718" y="471"/>
      <point x="836" y="379"/>
      <point x="836" y="230" type="curve" smooth="yes"/>
      <point x="836" y="81"/>
      <point x="718" y="-10"/>
      <point x="558" y="-10" type="curve" smooth="yes"/>
      <point x="398" y="-10"/>
      <point x="280" y="81"/>
    </contour>
    <contour>
      <point x="481" y="230" type="curve" smooth="yes"/>
      <point x="481" y="174"/>
      <point x="518" y="145"/>
      <point x="558" y="145" type="curve" smooth="yes"/>
      <point x="598" y="145"/>
      <point x="635" y="174"/>
      <point x="635" y="230" type="curve" smooth="yes"/>
      <point x="635" y="286"/>
      <point x="598" y="316"/>
      <point x="558" y="316" type="curve" smooth="yes"/>
      <point x="518" y="316"/>
      <point x="481" y="286"/>
    </contour>
  </outline>
</glyph>
<glyph name="uni045D" format="2">
  <advance width="620"/>
  <unicode hex="045D"/>
  <outline>
    <contour>
      <point x="565" y="300" type="line"/>
      <point x="50" y="-35" type="line"/>
      <point x="55" y="160" type="line"/>
      <point x="570" y="495" type="line"/>
    </contour>
    <contour>
      <point x="235" y="460" type="line"/>
      <point x="235" y="125" type="line"/>
      <point x="50" y="-35" type="line"/>
      <point x="50" y="460" type="line"/>
    </contour>
    <contour>
      <point x="570" y="495" type="line"/>
      <point x="570" y="0" type="line"/>
      <point x="385" y="0" type="line"/>
      <point x="385" y="335" type="line"/>
    </contour>
    <contour>
      <point x="140" y="705" type="line"/>
      <point x="280" y="765" type="line"/>
      <point x="430" y="605" type="line"/>
      <point x="320" y="555" type="line"/>
    </contour>
  </outline>
</glyph>
<glyph name="uni045E" format="2">
  <advance width="440"/>
  <unicode hex="045E"/>
  <outline>
    <contour>
      <point x="585" y="460" type="line"/>
      <point x="285" y="-220" type="line"/>
      <point x="95" y="-220" type="line"/>
      <point x="198" y="20" type="line"/>
      <point x="-15" y="460" type="line"/>
      <point x="195" y="460" type="line"/>
      <point x="345" y="85" type="line"/>
      <point x="240" y="85" type="line"/>
      <point x="390" y="460" type="line"/>
    </contour>
    <contour>
      <point x="117" y="681" type="curve"/>
      <point x="233" y="681" type="line"/>
      <point x="233" y="640"/>
      <point x="265" y="631"/>
      <point x="285" y="631" type="curve" smooth="yes"/>
      <point x="305" y="631"/>
      <point x="337" y="640"/>
      <point x="337" y="681" type="curve"/>
      <point x="453" y="681" type="line"/>
      <point x="453" y="592"/>
      <point x="390" y="531"/>
      <point x="285" y="531" type="curve" smooth="yes"/>
      <point x="180" y="531"/>
      <point x="117" y="592"/>
    </contour>
  </outline>
</glyph>
<glyph name="uni1E9E" format="2">
  <advance width="874"/>
  <unicode hex="1E9E"/>
  <outline>
    <contour>
      <point x="612" y="-12" type="curve" smooth="yes"/>
      <point x="754" y="-12"/>
      <point x="830" y="53"/>
      <point x="830" y="169" type="curve" smooth="yes"/>
      <point x="830" y="301"/>
      <point x="719" y="315"/>
      <point x="719" y="356" type="curve" smooth="yes"/>
      <point x="719" y="386"/>
      <point x="774" y="442"/>
      <point x="774" y="526" type="curve" smooth="yes"/>
      <point x="774" y="628"/>
      <point x="669" y="720"/>
      <point x="445" y="720" type="curve" smooth="yes"/>
      <point x="151" y="720"/>
      <point x="80" y="560"/>
      <point x="80" y="352" type="curve" smooth="yes"/>
      <point x="80" y="-2" type="line"/>
      <point x="308" y="-2" type="line"/>
      <point x="308" y="330" type="line" smooth="yes"/>
      <point x="308" y="444"/>
      <point x="341" y="525"/>
      <point x="447" y="525" type="curve" smooth="yes"/>
      <point x="492" y="525"/>
      <point x="533" y="504"/>
      <point x="533" y="472" type="curve" smooth="yes"/>
      <point x="533" y="432"/>
      <point x="478" y="414"/>
      <point x="478" y="356" type="curve" smooth="yes"/>
      <point x="478" y="275"/>
      <point x="598" y="269"/>
      <point x="598" y="200" type="curve" smooth="yes"/>
      <point x="598" y="174"/>
      <point x="576" y="162"/>
      <point x="540" y="162" type="curve" smooth="yes"/>
      <point x="509" y="162"/>
      <point x="451" y="175"/>
      <point x="388" y="198" type="curve"/>
      <point x="350" y="22" type="line"/>
      <point x="427" y="1"/>
      <point x="528" y="-12"/>
    </contour>
  </outline>
</glyph>
<glyph name="quoteright" format="2">
  <advance width="365"/>
  <unicode hex="2019"/>
  <outline>
    <contour>
      <point x="100" y="700" type="line"/>
      <point x="295" y="700" type="line"/>
      <point x="190" y="430" type="line"/>
      <point x="50" y="430" type="line"/>
    </contour>
  </outline>
</glyph>
<glyph name="quotedblbase" format="2">
  <advance width="615"/>
  <unicode hex="201E"/>
  <outline>
    <contour>
      <point x="100" y="80" type="line"/>
      <point x="295" y="80" type="line"/>
      <point x="190" y="-190" type="line"/>
      <point x="50" y="-190" type="line"/>
    </contour>
    <contour>
      <point x="350" y="80" type="line"/>
      <point x="545" y="80" type="line"/>
      <point x="440" y="-190" type="line"/>
      <point x="300" y="-190" type="line"/>
    </contour>
  </outline>
</glyph>
<glyph name="daggerdbl" format="2">
  <advance width="670"/>
  <unicode hex="2021"/>
  <outline>
    <contour>
      <point x="90" y="180" type="line"/>
      <point x="580" y="180" type="line"/>
      <point x="580" y="25" type="line"/>
      <point x="90" y="25" type="line"/>
    </contour>
    <contour>
      <point x="90" y="540" type="line"/>
      <point x="580" y="540" type="line"/>
      <point x="580" y="385" type="line"/>
      <point x="90" y="385" type="line"/>
    </contour>
    <contour>
      <point x="245" y="700" type="line"/>
      <point x="425" y="700" type="line"/>
      <point x="425" y="-150" type="line"/>
      <point x="245" y="-150" type="line"/>
    </contour>
  </outline>
</glyph>
<glyph name="uni2075" format="2">
  <advance width="406"/>
  <unicode hex="2075"/>
  <outline>
    <contour>
      <point x="382" y="410" type="curve" smooth="yes"/>
      <point x="382" y="309"/>
      <point x="280" y="269"/>
      <point x="199" y="269" type="curve" smooth="yes"/>
      <point x="122" y="269"/>
      <point x="66" y="285"/>
      <point x="20" y="303" type="curve"/>
      <point x="57" y="420" type="line"/>
      <point x="100" y="396"/>
      <point x="141" y="389"/>
      <point x="163" y="389" type="curve" smooth="yes"/>
      <point x="208" y="389"/>
      <point x="237" y="397"/>
      <point x="237" y="428" type="curve" smooth="yes"/>
      <point x="237" y="459"/>
      <point x="196" y="464"/>
      <point x="163" y="464" type="curve" smooth="yes"/>
      <point x="135" y="464"/>
      <point x="82" y="460"/>
      <point x="39" y="444" type="curve"/>
      <point x="134" y="502" type="line"/>
      <point x="168" y="538"/>
      <point x="206" y="545"/>
      <point x="253" y="545" type="curve" smooth="yes"/>
      <point x="316" y="545"/>
      <point x="382" y="499"/>
    </contour>
    <contour>
      <point x="195" y="584" type="line"/>
      <point x="158" y="492" type="line"/>
      <point x="39" y="444" type="line"/>
      <point x="99" y="698" type="line"/>
      <point x="369" y="698" type="line"/>
      <point x="369" y="584" type="line"/>
    </contour>
  </outline>
</glyph>
<glyph name="uni2088" format="2">
  <advance width="396"/>
  <unicode hex="2088"/>
  <outline>
    <contour>
      <point x="40" y="319" type="curve" smooth="yes"/>
      <point x="40" y="396"/>
      <point x="114" y="432"/>
      <point x="198" y="432" type="curve" smooth="yes"/>
      <point x="282" y="432"/>
      <point x="356" y="396"/>
      <point x="356" y="319" type="curve" smooth="yes"/>
      <point x="356" y="236"/>
      <point x="267" y="201"/>
      <point x="198" y="201" type="curve" smooth="yes"/>
      <point x="129" y="201"/>
      <point x="40" y="236"/>
    </contour>
    <contour>
      <point x="164" y="307" type="curve" smooth="yes"/>
      <point x="164" y="285"/>
      <point x="177" y="270"/>
      <point x="198" y="270" type="curve" smooth="yes"/>
      <point x="219" y="270"/>
      <point x="232" y="285"/>
      <point x="232" y="307" type="curve" smooth="yes"/>
      <point x="232" y="329"/>
      <point x="219" y="342"/>
      <point x="198" y="342" type="curve" smooth="yes"/>
      <point x="177" y="342"/>
      <point x="164" y="329"/>
    </contour>
    <contour>
      <point x="25" y="114" type="curve" smooth="yes"/>
      <point x="25" y="209"/>
      <point x="129" y="240"/>
      <point x="198" y="240" type="curve" smooth="yes"/>
      <point x="267" y="240"/>
      <point x="371" y="209"/>
      <point x="371" y="114" type="curve" smooth="yes"/>
      <point x="371" y="31"/>
      <point x="285" y="-12"/>
      <point x="198" y="-12" type="curve" smooth="yes"/>
      <point x="111" y="-12"/>
      <point x="25" y="31"/>
    </contour>
    <contour>
      <point x="158" y="135" type="curve" smooth="yes"/>
      <point x="158" y="107"/>
      <point x="174" y="93"/>
      <point x="198" y="93" type="curve" smooth="yes"/>
      <point x="222" y="93"/>
      <point x="238" y="107"/>
      <point x="238" y="135" type="curve" smooth="yes"/>
      <point x="238" y="157"/>
      <point x="222" y="174"/>
      <point x="198" y="174" type="curve" smooth="yes"/>
      <point x="174" y="174"/>
      <point x="158" y="157"/>
    </contour>
  </outline>
</glyph>
<glyph name="trademark" format="2">
  <advance width="795"/>
  <unicode hex="2122"/>
  <outline>
    <contour>
      <point x="28" y="602" type="line"/>
      <point x="28" y="700" type="line"/>
      <point x="338" y="700" type="line"/>
      <point x="338" y="602" type="line"/>
      <point x="238" y="602" type="line"/>
      <point x="238" y="350" type="line"/>
      <point x="128" y="350" type="line"/>
      <point x="128" y="602" type="line"/>
    </contour>
    <contour>
      <point x="626" y="588" type="line"/>
      <point x="708" y="718" type="line"/>
      <point x="773" y="350" type="line"/>
      <point x="656" y="350" type="line"/>
    </contour>
    <contour>
      <point x="398" y="718" type="line"/>
      <point x="480" y="588" type="line"/>
      <point x="450" y="350" type="line"/>
      <point x="333" y="350" type="line"/>
    </contour>
    <contour>
      <point x="708" y="718" type="line"/>
      <point x="708" y="585" type="line"/>
      <point x="553" y="382" type="line"/>
      <point x="398" y="585" type="line"/>
      <point x="398" y="718" type="line"/>
      <point x="553" y="528" type="line"/>
    </contour>
  </outline>
</glyph>
<glyph name="uni2151" format="2">
  <advance width="944"/>
  <unicode hex="2151"/>
  <outline>
    <contour>
      <point x="618" y="700" type="line"/>
      <point x="773" y="700" type="line"/>
      <point x="253" y="0" type="line"/>
      <point x="98" y="0" type="line"/>
    </contour>
    <contour>
      <point x="20" y="549" type="line"/>
      <point x="20" y="659" type="line"/>
      <point x="257" y="703" type="line"/>
      <point x="257" y="274" type="line"/>
      <point x="131" y="274" type="line"/>
      <point x="131" y="574" type="line"/>
    </contour>
    <contour>
      <point x="787" y="269" type="curve" smooth="yes"/>
      <point x="787" y="303"/>
      <point x="763" y="323"/>
      <point x="731" y="323" type="curve" smooth="yes"/>
      <point x="699" y="323"/>
      <point x="674" y="303"/>
      <point x="674" y="269" type="curve" smooth="yes"/>
      <point x="674" y="235"/>
      <point x="699" y="214"/>
      <point x="731" y="214" type="curve" smooth="yes"/>
      <point x="763" y="214"/>
      <point x="787" y="235"/>
    </contour>
    <contour>
      <point x="748" y="5" type="line"/>
      <point x="580" y="5" type="line"/>
      <point x="719" y="144" type="line"/>
      <point x="750" y="160" type="line"/>
      <point x="724" y="137"/>
      <point x="708" y="132"/>
      <point x="676" y="132" type="curve" smooth="yes"/>
      <point x="617" y="132"/>
      <point x="543" y="180"/>
      <point x="543" y="269" type="curve" smooth="yes"/>
      <point x="543" y="382"/>
      <point x="629" y="434"/>
      <point x="731" y="434" type="curve" smooth="yes"/>
      <point x="833" y="434"/>
      <point x="919" y="382"/>
      <point x="919" y="269" type="curve" smooth="yes"/>
      <point x="919" y="217"/>
      <point x="890" y="175"/>
      <point x="856" y="134" type="curve" smooth="yes"/>
    </contour>
  </outline>
</glyph>
<glyph name="uni2152" format="2">
  <advance width="1290"/>
  <unicode hex="2152"/>
  <outline>
    <contour>
      <point x="618" y="700" type="line"/>
      <point x="773" y="700" type="line"/>
      <point x="253" y="0" type="line"/>
      <point x="98" y="0" type="line"/>
    </contour>
    <contour>
      <point x="20" y="549" type="line"/>
      <point x="20" y="659" type="line"/>
      <point x="257" y="703" type="line"/>
      <point x="257" y="274" type="line"/>
      <point x="131" y="274" type="line"/>
      <point x="131" y="574" type="line"/>
    </contour>
    <contour>
      <point x="588" y="276" type="line"/>
      <point x="588" y="386" type="line"/>
      <point x="825" y="430" type="line"/>
      <point x="825" y="1" type="line"/>
      <point x="699" y="1" type="line"/>
      <point x="699" y="301" type="line"/>
    </contour>
    <contour>
      <point x="1009" y="210" type="curve" smooth="yes"/>
      <point x="1009" y="142"/>
      <point x="1034" y="102"/>
      <point x="1069" y="102" type="curve" smooth="yes"/>
      <point x="1104" y="102"/>
      <point x="1129" y="142"/>
      <point x="1129" y="210" type="curve" smooth="yes"/>
      <point x="1129" y="278"/>
      <point x="1104" y="318"/>
      <point x="1069" y="318" type="curve" smooth="yes"/>
      <point x="1034" y="318"/>
      <point x="1009" y="278"/>
    </contour>
    <contour>
      <point x="883" y="210" type="curve" smooth="yes"/>
      <point x="883" y="353"/>
      <point x="959" y="429"/>
      <point x="1069" y="429" type="curve" smooth="yes"/>
      <point x="1185" y="429"/>
      <point x="1255" y="353"/>
      <point x="1255" y="210" type="curve" smooth="yes"/>
      <point x="1255" y="67"/>
      <point x="1185" y="-9"/>
      <point x="1069" y="-9" type="curve" smooth="yes"/>
      <point x="959" y="-9"/>
      <point x="883" y="67"/>
    </contour>
  </outline>
</glyph>
<glyph name="threeeighths" format="2">
  <advance width="1017"/>
  <unicode hex="215C"/>
  <outline>
    <contour>
      <point x="695" y="700" type="line"/>
      <point x="850" y="700" type="line"/>
      <point x="330" y="0" type="line"/>
      <point x="175" y="0" type="line"/>
    </contour>
    <contour>
      <point x="167" y="481" type="curve"/>
      <point x="167" y="534" type="line"/>
      <point x="209" y="534"/>
      <point x="240" y="556"/>
      <point x="240" y="581" type="curve" smooth="yes"/>
      <point x="240" y="597"/>
      <point x="228" y="607"/>
      <point x="202" y="607" type="curve" smooth="yes"/>
      <point x="175" y="607"/>
      <point x="157" y="591"/>
      <point x="157" y="566" type="curve"/>
      <point x="36" y="566" type="line"/>
      <point x="36" y="646"/>
      <point x="101" y="709"/>
      <point x="203" y="709" type="curve" smooth="yes"/>
      <point x="311" y="709"/>
      <point x="370" y="658"/>
      <point x="370" y="590" type="curve" smooth="yes"/>
      <point x="370" y="510"/>
      <point x="278" y="481"/>
    </contour>
    <contour>
      <point x="197" y="268" type="curve" smooth="yes"/>
      <point x="83" y="268"/>
      <point x="18" y="347"/>
      <point x="18" y="427" type="curve"/>
      <point x="148" y="427" type="line"/>
      <point x="148" y="384"/>
      <point x="176" y="370"/>
      <point x="203" y="370" type="curve" smooth="yes"/>
      <point x="230" y="370"/>
      <point x="252" y="378"/>
      <point x="252" y="409" type="curve" smooth="yes"/>
      <point x="252" y="434"/>
      <point x="233" y="457"/>
      <point x="167" y="457" type="curve"/>
      <point x="167" y="519" type="line"/>
      <point x="296" y="519"/>
      <point x="382" y="483"/>
      <point x="382" y="397" type="curve" smooth="yes"/>
      <point x="382" y="323"/>
      <point x="317" y="268"/>
    </contour>
    <contour>
      <point x="655" y="319" type="curve" smooth="yes"/>
      <point x="655" y="396"/>
      <point x="729" y="432"/>
      <point x="813" y="432" type="curve" smooth="yes"/>
      <point x="897" y="432"/>
      <point x="971" y="396"/>
      <point x="971" y="319" type="curve" smooth="yes"/>
      <point x="971" y="236"/>
      <point x="882" y="201"/>
      <point x="813" y="201" type="curve" smooth="yes"/>
      <point x="744" y="201"/>
      <point x="655" y="236"/>
    </contour>
    <contour>
      <point x="779" y="307" type="curve" smooth="yes"/>
      <point x="779" y="285"/>
      <point x="792" y="270"/>
      <point x="813" y="270" type="curve" smooth="yes"/>
      <point x="834" y="270"/>
      <point x="847" y="285"/>
      <point x="847" y="307" type="curve" smooth="yes"/>
      <point x="847" y="329"/>
      <point x="834" y="342"/>
      <point x="813" y="342" type="curve" smooth="yes"/>
      <point x="792" y="342"/>
      <point x="779" y="329"/>
    </contour>
    <contour>
      <point x="640" y="114" type="curve" smooth="yes"/>
      <point x="640" y="209"/>
      <point x="744" y="240"/>
      <point x="813" y="240" type="curve" smooth="yes"/>
      <point x="882" y="240"/>
      <point x="986" y="209"/>
      <point x="986" y="114" type="curve" smooth="yes"/>
      <point x="986" y="31"/>
      <point x="900" y="-12"/>
      <point x="813" y="-12" type="curve" smooth="yes"/>
      <point x="726" y="-12"/>
      <point x="640" y="31"/>
    </contour>
    <contour>
      <point x="773" y="135" type="curve" smooth="yes"/>
      <point x="773" y="107"/>
      <point x="789" y="93"/>
      <point x="813" y="93" type="curve" smooth="yes"/>
      <point x="837" y="93"/>
      <point x="853" y="107"/>
      <point x="853" y="135" type="curve" smooth="yes"/>
      <point x="853" y="157"/>
      <point x="837" y="174"/>
      <point x="813" y="174" type="curve" smooth="yes"/>
      <point x="789" y="174"/>
      <point x="773" y="157"/>
    </contour>
  </outline>
</glyph>
<glyph name="summation" format="2">
  <advance width="600"/>
  <unicode hex="2211"/>
  <outline>
    <contour>
      <point x="100" y="0" type="line"/>
      <point x="270" y="352" type="line"/>
      <point x="100" y="700" type="line"/>
      <point x="500" y="700" type="line"/>
      <point x="500" y="544" type="line"/>
      <point x="356" y="544" type="line"/>
      <point x="450" y="352" type="line"/>
      <point x="356" y="156" type="line"/>
      <point x="500" y="156" type="line"/>
      <point x="500" y="0" type="line"/>
    </contour>
  </outline>
</glyph>
<glyph name="uni2215" format="2">
  <advance width="665"/>
  <unicode hex="2215"/>
  <outline>
    <contour>
      <point x="465" y="700" type="line"/>
      <point x="650" y="700" type="line"/>
      <point x="210" y="-150" type="line"/>
      <point x="15" y="-150" type="line"/>
    </contour>
  </outline>
</glyph>
<glyph name="radical" format="2">
  <advance width="600"/>
  <unicode hex="221A"/>
  <outline>
    <contour>
      <point x="246" y="-194" type="line"/>
      <point x="478" y="658" type="line"/>
      <point x="375" y="551" type="line"/>
      <point x="537" y="551" type="line"/>
      <point x="537" y="700" type="line"/>
      <point x="358" y="700" type="line"/>
      <point x="208" y="86" type="line"/>
      <point x="283" y="32" type="line"/>
      <point x="182" y="318" type="line"/>
      <point x="10" y="254" type="line"/>
      <point x="54" y="124" type="line"/>
      <point x="184" y="165" type="line"/>
      <point x="98" y="204" type="line"/>
    </contour>
  </outline>
</glyph>
<glyph name="infinity" format="2">
  <advance width="840"/>
  <unicode hex="221E"/>
  <outline>
    <contour>
      <point x="220" y="18" type="curve" smooth="yes"/>
      <point x="114" y="18"/>
      <point x="22" y="116"/>
      <point x="22" y="230" type="curve" smooth="yes"/>
      <point x="22" y="344"/>
      <point x="114" y="442"/>
      <point x="220" y="442" type="curve" smooth="yes"/>
      <point x="287" y="442"/>
      <point x="352" y="402"/>
      <point x="420" y="321" type="curve"/>
      <point x="487" y="401"/>
      <point x="553" y="442"/>
      <point x="620" y="442" type="curve" smooth="yes"/>
      <point x="726" y="442"/>
      <point x="818" y="344"/>
      <point x="818" y="230" type="curve" smooth="yes"/>
      <point x="818" y="116"/>
      <point x="726" y="18"/>
      <point x="620" y="18" type="curve" smooth="yes"/>
      <point x="552" y="18"/>
      <point x="488" y="58"/>
      <point x="420" y="138" type="curve"/>
      <point x="352" y="58"/>
      <point x="287" y="18"/>
    </contour>
    <contour>
      <point x="246" y="155" type="curve" smooth="yes"/>
      <point x="278" y="155"/>
      <point x="310" y="182"/>
      <point x="340" y="230" type="curve"/>
      <point x="310" y="278"/>
      <point x="278" y="304"/>
      <point x="246" y="304" type="curve" smooth="yes"/>
      <point x="210" y="304"/>
      <point x="176" y="269"/>
      <point x="176" y="230" type="curve" smooth="yes"/>
      <point x="176" y="191"/>
      <point x="210" y="155"/>
    </contour>
    <contour>
      <point x="595" y="155" type="curve" smooth="yes"/>
      <point x="631" y="155"/>
      <point x="664" y="191"/>
      <point x="664" y="230" type="curve" smooth="yes"/>
      <point x="664" y="270"/>
      <point x="631" y="304"/>
      <point x="595" y="304" type="curve" smooth="yes"/>
      <point x="563" y="304"/>
      <point x="530" y="278"/>
      <point x="500" y="230" type="curve"/>
      <point x="530" y="182"/>
      <point x="563" y="155"/>
    </contour>
  </outline>
</glyph>
<glyph name="notequal" format="2">
  <advance width="600"/>
  <unicode hex="2260"/>
  <outline>
    <contour>
      <point x="278" y="-26" type="line"/>
      <point x="510" y="524" type="line"/>
      <point x="355" y="581" type="line"/>
      <point x="123" y="30" type="line"/>
    </contour>
    <contour>
      <point x="50" y="80" type="line"/>
      <point x="583" y="80" type="line"/>
      <point x="583" y="245" type="line"/>
      <point x="50" y="245" type="line"/>
    </contour>
    <contour>
      <point x="50" y="320" type="line"/>
      <point x="583" y="320" type="line"/>
      <point x="583" y="485" type="line"/>
      <point x="50" y="485" type="line"/>
    </contour>
  </outline>
</glyph>
<glyph name="greaterequal" format="2">
  <advance width="600"/>
  <unicode hex="2265"/>
  <outline>
    <contour>
      <point x="65" y="10" type="line"/>
      <point x="580" y="10" type="line"/>
      <point x="580" y="170" type="line"/>
      <point x="65" y="170" type="line"/>
    </contour>
    <contour>
      <point x="65" y="190" type="line"/>
      <point x="575" y="400" type="line"/>
      <point x="575" y="535" type="line"/>
      <point x="65" y="745" type="line"/>
      <point x="65" y="555" type="line"/>
      <point x="309" y="464" type="line"/>
      <point x="65" y="380" type="line"/>
    </contour>
  </outline>
</glyph>
<glyph name="abreve.alt" format="2">
  <advance width="645"/>
  <outline>
    <contour>
      <point x="400" y="460" type="line"/>
      <point x="595" y="460" type="line"/>
      <point x="595" y="0" type="line"/>
      <point x="400" y="0" type="line"/>
    </contour>
    <contour>
      <point x="30" y="230" type="curve" smooth="yes"/>
      <point x="30" y="389"/>
      <point x="138" y="470"/>
      <point x="243" y="470" type="curve" smooth="yes"/>
      <point x="358" y="470"/>
      <point x="446" y="379"/>
      <point x="446" y="230" type="curve" smooth="yes"/>
      <point x="446" y="81"/>
      <point x="358" y="-10"/>
      <point x="243" y="-10" type="curve" smooth="yes"/>
      <point x="138" y="-10"/>
      <point x="30" y="71"/>
    </contour>
    <contour>
      <point x="236" y="230" type="curve" smooth="yes"/>
      <point x="236" y="179"/>
      <point x="273" y="140"/>
      <point x="318" y="140" type="curve" smooth="yes"/>
      <point x="358" y="140"/>
      <point x="400" y="174"/>
      <point x="400" y="230" type="curve" smooth="yes"/>
      <point x="400" y="286"/>
      <point x="358" y="320"/>
      <point x="318" y="320" type="curve" smooth="yes"/>
      <point x="273" y="320"/>
      <point x="236" y="281"/>
    </contour>
    <contour>
      <point x="155" y="681" type="curve"/>
      <point x="271" y="681" type="line"/>
      <point x="271" y="640"/>
      <point x="303" y="631"/>
      <point x="323" y="631" type="curve" smooth="yes"/>
      <point x="343" y="631"/>
      <point x="375" y="640"/>
      <point x="375" y="681" type="curve"/>
      <point x="491" y="681" type="line"/>
      <point x="491" y="592"/>
      <point x="428" y="531"/>
      <point x="323" y="531" type="curve" smooth="yes"/>
      <point x="218" y="531"/>
      <point x="155" y="592"/>
    </contour>
  </outline>
</glyph>
